P3
10 10
255
71
0
0
76
4
5
87
11
13
97
18
21
101
21
24
103
18
23
101
14
20
100
11
17
102
9
17
102
9
17
103
10
18
104
11
19
105
12
20
106
13
21
107
14
22
106
15
24
105
15
25
104
16
28
107
17
29
108
18
30
109
15
29
108
14
28
110
12
27
109
11
26
111
8
25
112
9
26
114
9
26
115
10
27
116
11
28
117
12
29
118
13
30
117
15
29
111
16
24
109
17
22
109
17
22
108
16
21
107
15
20
107
15
20
106
14
19
106
14
19
110
18
23
110
18
23
112
17
23
111
16
22
111
16
22
110
15
21
110
15
21
111
14
21
116
10
24
117
9
24
116
10
24
116
10
24
116
10
24
116
10
24
115
10
24
115
10
24
114
12
25
114
12
25
113
13
25
113
13
25
113
13
25
113
13
25
111
14
25
113
13
25
115
10
24
117
11
25
117
11
25
118
12
26
120
12
27
121
13
28
124
13
29
125
14
30
114
3
19
117
6
22
123
11
27
127
15
31
132
17
34
132
17
34
131
16
33
131
14
32
134
15
34
134
13
32
130
11
30
129
12
30
129
12
30
128
13
30
126
11
28
125
8
26
131
12
31
134
11
31
137
10
31
140
8
31
145
7
32
149
7
33
151
7
34
152
8
33
150
9
28
149
11
27
149
11
27
149
11
27